<svg id="Layer_1" enable-background="new 0 0 512 512" height="512" viewBox="0 0 512 512" width="512" xmlns="http://www.w3.org/2000/svg"><g><path d="m68.786 425.021 352.906 11.479 12.802-1.696c41.234-43.843 66.507-102.87 66.507-167.806 0-135.311-109.691-245.002-245.002-245.002s-245.002 109.691-245.002 245.002c.001 60.224 21.743 115.361 57.789 158.023z" fill="#73c3f9"/><g><path d="m287.74 38.942c-.526 5.202-4.931 9.276-10.269 9.276-5.339 0-9.743-4.074-10.269-9.276l-36.632 28.28 82.392 63.607c4.505 3.478 5.341 9.973 1.863 14.479-3.479 4.505-9.975 5.34-14.479 1.863l-6.05-4.671v131.798h97.365v-155.129z" fill="#ff7186"/></g><path d="m277.47 48.218c-5.339 0-9.743-4.074-10.269-9.276l-36.632 28.28 56.892 43.921v-28.81c0-11.016 15.132-16.762 23.169-19.037 1.874-.53 3.255-1.974 3.799-3.75l-26.689-20.604c-.527 5.202-4.931 9.276-10.27 9.276z" fill="#ff4155"/><g><path d="m366.219 178.385h-45.478c-1.846 0-3.342 1.496-3.342 3.342v65.131c0 1.846 1.496 3.342 3.342 3.342h45.478c1.846 0 3.342-1.496 3.342-3.342v-65.131c0-1.846-1.497-3.342-3.342-3.342z" fill="#73c3f9"/></g><path d="m267.148 37.896v-26.283c0-.088.011-.173.013-.261l-54.481 42.06 19.003 14.671 35.797-27.635c-.209-.819-.332-1.67-.332-2.552z" fill="#2a428c"/><path d="m409.873 105.608-122.094-94.256c.002.087.013.173.013.261v26.283c0 .882-.123 1.734-.332 2.551l108.219 83.545c5.078 3.92 12.369 2.981 16.289-2.096 3.919-5.076 2.981-12.369-2.095-16.288z" fill="#3c58a0"/><path d="m287.779 11.352c.002.087.013.173.013.261v26.283c0 .882-.123 1.734-.332 2.551l26.388 20.371c.582-.962.897-2.095.831-3.287-.445-8.052 5.447-11.654 9.818-13.212 1.255-.447 2.258-1.306 2.907-2.377z" fill="#2a428c"/><path d="m101.289 437.161c1.638 1.46 4.168 1.46 5.806 0 2.893-2.578 6.703-4.147 10.885-4.147 4.181 0 7.991 1.569 10.885 4.147 1.638 1.46 4.168 1.46 5.806 0 2.893-2.578 6.703-4.147 10.884-4.147s7.991 1.569 10.885 4.147c1.638 1.46 4.168 1.46 5.806 0 2.893-2.578 6.703-4.147 10.885-4.147 4.181 0 7.991 1.569 10.885 4.147 1.638 1.46 4.168 1.46 5.806 0 2.893-2.578 6.703-4.147 10.884-4.147s7.991 1.569 10.885 4.147c1.638 1.46 4.168 1.46 5.806 0 2.893-2.578 6.703-4.147 10.885-4.147 4.181 0 7.991 1.569 10.884 4.147 1.638 1.46 4.168 1.46 5.806 0 2.893-2.578 6.703-4.147 10.884-4.147.683 0 1.352.057 2.013.138v-95.158h-166.717v95.055c3.885.176 7.418 1.69 10.137 4.112z" fill="#ffdd40"/><path d="m91.152 433.049c3.885.176 7.418 1.689 10.137 4.112 1.638 1.46 4.168 1.46 5.806 0 2.893-2.578 6.703-4.147 10.885-4.147 4.181 0 7.991 1.569 10.885 4.147 1.638 1.46 4.168 1.46 5.806 0 2.177-1.94 4.873-3.307 7.856-3.866v-77.105c0-1.328-.529-2.61-1.487-3.53-4.525-4.342-3.182-8.873-1.552-11.649.549-.935.755-1.986.658-3.017h-48.994z" fill="#ffb332"/><g><path d="m223.264 360.396c-26.218 0-81.747 0-97.64 0-1.846 0-3.342 1.496-3.342 3.342v65.131c0 1.846 1.496 3.342 3.342 3.342h97.64c1.846 0 3.342-1.496 3.342-3.342v-65.131c0-1.846-1.496-3.342-3.342-3.342z" fill="#73c3f9"/></g><path d="m380.074 449.87c0-9.096 7.208-16.804 16.304-16.855 2.1-.012 4.106.374 5.952 1.083v-96.103h-123.218v125.548h100.962z" fill="#ff7186"/><path d="m279.112 463.542h48.93c-.129-.924-.473-1.809-1-2.589-4.544-6.724-1.884-11.855-.119-14.133.783-1.011 1.181-2.264 1.181-3.543v-62.715c0-1.213-.354-2.415-1.074-3.391-2.233-3.03-1.468-5.801-.294-7.708 1.023-1.662 1.066-3.692.276-5.477-1.176-2.655-.605-5.24.224-7.123.774-1.757.776-3.797-.215-5.442-2.239-3.719-1.352-7.205-.132-9.557.625-1.205.822-2.576.578-3.871h-48.355z" fill="#ff4155"/><g><path d="m208.653 76.293c-.526 5.202-4.931 9.276-10.269 9.276-5.339 0-9.743-4.074-10.269-9.276l-86.933 67.113v130.892h194.405v-130.891z" fill="#ffdd40"/></g><path d="m208.653 76.293c-.526 5.202-4.931 9.276-10.269 9.276-5.339 0-9.743-4.074-10.269-9.276l-86.933 67.113v130.892h52.354c1.14-1.41 1.462-3.39.67-5.16-2.255-5.044.342-9.307 1.966-11.292.721-.882 1.11-1.982 1.11-3.121v-82.792c0-26.699 21.781-30.691 27.905-31.285 1.067-.103 2.068-.542 2.861-1.263l20.244-18.395c1.052-.956 1.616-2.321 1.617-3.743.01-14.234 11.861-18.152 18.957-19.223 1.809-.273 3.28-1.495 3.922-3.099z" fill="#ffb332"/><g><path d="m180.02 178.385h-45.478c-1.846 0-3.342 1.496-3.342 3.342v65.131c0 1.846 1.496 3.342 3.342 3.342h45.478c1.846 0 3.342-1.496 3.342-3.342v-65.131c-.001-1.846-1.497-3.342-3.342-3.342z" fill="#73c3f9"/></g><g><path d="m262.225 178.385h-45.478c-1.846 0-3.342 1.496-3.342 3.342v65.131c0 1.846 1.496 3.342 3.342 3.342h45.478c1.846 0 3.342-1.496 3.342-3.342v-65.131c0-1.846-1.496-3.342-3.342-3.342z" fill="#73c3f9"/></g><g><path d="m91.152 318.742h166.585v20.112h-166.585z" fill="#ffb332"/></g><path d="m91.152 338.855h49.004c.084-1.101-.187-2.221-.814-3.192-3.214-4.986-1.617-9.619.07-12.429.831-1.384.915-3.05.303-4.492h-48.563z" fill="#ff9100"/><g><path d="m279.276 318.742h123.054v20.112h-123.054z" fill="#ff4155"/></g><path d="m279.276 338.855h48.293c-.037-1.003-.328-1.993-.89-2.861-3.669-5.665-1.367-10.711.551-13.425.795-1.125 1.147-2.481 1.04-3.826h-48.993v20.112z" fill="#e80054"/><circle cx="198.383" cy="129.992" fill="#ffe98d" r="15.691"/><g fill="#e9efff"><path d="m223.264 353.944c-26.218 0-81.747 0-97.64 0-5.4 0-9.794 4.393-9.794 9.794v65.131c0 5.4 4.393 9.793 9.794 9.793h97.64c5.4 0 9.793-4.393 9.793-9.793v-65.131c.001-5.4-4.393-9.794-9.793-9.794zm-94.53 36.423h13.178v11.874h-13.178zm26.081 0h13.178v11.874h-13.178zm13.178 24.776v10.616h-13.178v-10.616zm12.903-24.776h13.178v11.874h-13.178zm0-12.903v-10.616h13.178v10.616zm26.08 12.903h13.178v11.874h-13.178zm13.179-12.903h-13.178v-10.616h13.178zm-52.162 0h-13.178v-10.616h13.178zm-26.081-10.617v10.616h-13.178v-10.616zm-13.178 48.296h13.178v10.616h-13.178zm52.162 0h13.178v10.616h-13.178zm26.08 10.616v-10.616h13.178v10.616z"/><path d="m366.219 171.933h-45.478c-5.4 0-9.793 4.393-9.793 9.794v65.131c0 5.4 4.393 9.793 9.793 9.793h45.478c5.4 0 9.794-4.393 9.794-9.793v-65.131c-.001-5.4-4.394-9.794-9.794-9.794zm-42.369 36.422h13.178v11.874h-13.178zm26.081 0h13.178v11.874h-13.178zm13.178-12.903h-13.178v-10.616h13.178zm-26.081-10.616v10.616h-13.178v-10.616zm-13.178 48.296h13.178v10.616h-13.178zm26.081 10.616v-10.616h13.178v10.616z"/><path d="m180.02 171.933h-45.478c-5.4 0-9.793 4.393-9.793 9.794v65.131c0 5.4 4.393 9.793 9.793 9.793h45.478c5.4 0 9.793-4.393 9.793-9.793v-65.131c0-5.4-4.393-9.794-9.793-9.794zm-42.369 36.422h13.178v11.874h-13.178zm26.081 0h13.178v11.874h-13.178zm13.178-12.903h-13.178v-10.616h13.178zm-26.081-10.616v10.616h-13.178v-10.616zm-13.178 48.296h13.178v10.616h-13.178zm26.081 10.616v-10.616h13.178v10.616z"/><path d="m262.225 171.933h-45.478c-5.4 0-9.794 4.393-9.794 9.794v65.131c0 5.4 4.393 9.793 9.794 9.793h45.478c5.4 0 9.794-4.393 9.794-9.793v-65.131c-.001-5.4-4.394-9.794-9.794-9.794zm-42.369 36.422h13.178v11.874h-13.178zm26.081 0h13.178v11.874h-13.178zm13.178-12.903h-13.178v-10.616h13.178zm-26.081-10.616v10.616h-13.178v-10.616zm-13.178 48.296h13.178v10.616h-13.178zm26.081 10.616v-10.616h13.178v10.616z"/></g><g><path d="m306.294 463.542h67.511v-97.846c0-2.927-2.373-5.3-5.3-5.3h-56.911c-2.927 0-5.3 2.373-5.3 5.3z" fill="#d34e3c"/></g><path d="m327.042 460.953c-4.544-6.724-1.884-11.855-.119-14.133.783-1.011 1.181-2.264 1.181-3.543v-62.715c0-1.213-.354-2.415-1.074-3.391-2.233-3.03-1.468-5.801-.294-7.708 1.023-1.662 1.066-3.692.276-5.477-.547-1.234-.706-2.45-.647-3.591h-14.771c-2.927 0-5.3 2.373-5.3 5.3v97.846h21.748c-.129-.923-.473-1.808-1-2.588z" fill="#b53921"/><g><path d="m368.505 353.944h-56.911c-6.48 0-11.751 5.271-11.751 11.751v97.847h12.903v-96.695h54.608v96.695h12.903v-97.847c-.001-6.48-5.272-11.751-11.752-11.751z" fill="#e9efff"/></g><path d="m327.011 363.987c-1.176-2.655-.605-5.24.224-7.123.409-.928.595-1.934.54-2.92h-16.182c-6.48 0-11.751 5.271-11.751 11.751v97.847h12.903v-96.695h14.8c.054-.963-.127-1.944-.534-2.86z" fill="#bec8f7"/><g><path d="m328.104 378.411h23.891c1.954 0 3.538 1.584 3.538 3.538v17.604c0 1.954-1.584 3.538-3.538 3.538h-23.891c-1.954 0-3.538-1.584-3.538-3.538v-17.604c0-1.954 1.584-3.538 3.538-3.538z" fill="#b53921"/></g><g><path d="m328.104 420.847h23.891c1.954 0 3.538 1.584 3.538 3.538v17.604c0 1.954-1.584 3.538-3.538 3.538h-23.891c-1.954 0-3.538-1.584-3.538-3.538v-17.604c0-1.954 1.584-3.538 3.538-3.538z" fill="#b53921"/></g><g><g><path d="m328.028 418.42h-6.308c-3.563 0-6.451-2.888-6.451-6.452 0-3.563 2.888-6.452 6.451-6.452h6.308c3.563 0 6.452 2.888 6.452 6.452-.001 3.564-2.889 6.452-6.452 6.452z" fill="#e9efff"/></g></g><path d="m90.404 433.014c.543 0 1.079.029 1.608.081v-114.353h-23.226v106.278c3.49 4.131 7.118 8.14 10.869 12.03 2.877-2.508 6.631-4.036 10.749-4.036z" fill="#e9efff"/><path d="m80.539 346.932c0-4.461 3.616-8.078 8.078-8.078h3.395v-20.112h-23.226v106.278c3.49 4.131 7.118 8.14 10.869 12.03.284-.248.583-.478.884-.706z" fill="#bec8f7"/><path d="m407.234 437.052c1.7 1.484 4.243 1.613 5.928.112 2.894-2.579 6.704-4.149 10.887-4.149v-114.273h-23.225v114.86c2.402.661 4.584 1.856 6.41 3.45z" fill="#e9efff"/><path d="m412.436 344.612c0-3.18 2.578-5.757 5.757-5.757h5.855v-20.112h-23.225v114.86c2.403.662 4.585 1.856 6.411 3.45 1.471 1.284 3.571 1.549 5.202.625z" fill="#bec8f7"/><g><path d="m256.877 318.742h23.225v144.8h-23.225z" fill="#e9efff"/></g><path d="m268.489 346.162c0-4.036 3.272-7.307 7.307-7.307h4.305v-20.112h-23.225v144.8h11.613z" fill="#bec8f7"/><g><path d="m391.66 273.438c-12.772 0-277.722 0-290.48 0l-45.59 25.519h381.654z" fill="#4b6bb2"/></g><path d="m139.888 294.54c-4.406-9.279 5.351-15.736 11.958-18.891 1.017-.485 1.77-1.28 2.242-2.21-28.9 0-49.565 0-52.908 0l-45.59 25.519h84.198c.731-1.353.772-3.003.1-4.418z" fill="#3c58a0"/><g><g><path d="m437.244 320.463h-381.654c-6.414 0-11.613-5.199-11.613-11.613s5.199-11.613 11.613-11.613h381.654c6.414 0 11.613 5.199 11.613 11.613s-5.199 11.613-11.613 11.613z" fill="#6289cc"/></g></g><path d="m140.328 297.237h-84.738c-6.414 0-11.613 5.199-11.613 11.613s5.199 11.613 11.613 11.613h84.525c-.042-.969-.366-1.925-.969-2.741-5.82-7.869-2.381-14.712.244-18.142.53-.692.84-1.505.938-2.343z" fill="#4b6bb2"/><path d="m188.061 75.247v-26.283c0-.088.011-.173.013-.261l-105.057 81.106c-5.076 3.919-6.015 11.212-2.096 16.288 3.92 5.077 11.21 6.016 16.289 2.096l91.183-70.395c-.209-.818-.332-1.669-.332-2.551z" fill="#3c58a0"/><path d="m313.75 129.809-105.058-81.106c.002.087.013.173.013.261v26.283c0 .882-.123 1.734-.332 2.551l91.183 70.395c5.066 3.91 12.361 2.992 16.289-2.096 3.919-5.077 2.981-12.369-2.095-16.288z" fill="#4b6bb2"/><path d="m208.692 48.703c.002.087.013.173.013.261v26.283c0 .882-.123 1.734-.332 2.551l23.731 18.321c.704-.903 1.105-2.037 1.029-3.253-.606-9.689 7.879-13.316 11.681-14.45.523-.156 1.005-.404 1.445-.71z" fill="#3c58a0"/><g><path d="m277.47 49.508c-6.414 0-11.613-5.199-11.613-11.613v-26.282c0-6.414 5.2-11.613 11.613-11.613 6.414 0 11.613 5.199 11.613 11.613v26.283c0 6.413-5.199 11.612-11.613 11.612z" fill="#6289cc"/></g><path d="m277.47 27.508c-6.414 0-11.613-5.199-11.613-11.613v22c0 6.414 5.199 11.613 11.613 11.613s11.613-5.199 11.613-11.613v-22c0 6.414-5.199 11.613-11.613 11.613z" fill="#4b6bb2"/><path d="m296.54 508.642c31.119-5.183 60.259-16.215 86.235-31.954v-14.301h-86.235z" fill="#70f2a4"/><path d="m413.162 435.164c-1.685 1.502-4.228 1.373-5.928-.112-2.9-2.532-6.696-4.061-10.855-4.037-9.096.051-16.304 7.759-16.304 16.855v30.415c20.168-11.869 38.486-26.538 54.42-43.481-2.836-2.358-6.468-3.79-10.446-3.79-4.183 0-7.994 1.57-10.887 4.15z" fill="#50dd89"/><g><path d="m407.293 447.892c0-4.707 1.935-9.07 5.078-12.184-1.622.881-3.685.612-5.137-.656-2.9-2.532-6.696-4.061-10.855-4.037-9.096.051-16.304 7.759-16.304 16.855v30.415c9.504-5.593 18.591-11.816 27.218-18.598 0-4.135 0-8.319 0-11.795z" fill="#38c674"/></g><path d="m299.828 447.87c0-9.096-7.209-16.804-16.305-16.855-4.159-.023-7.955 1.505-10.854 4.037-1.7 1.484-4.243 1.613-5.928.112-2.894-2.579-6.704-4.149-10.887-4.149-4.181 0-7.991 1.569-10.884 4.147-1.638 1.46-4.168 1.46-5.806 0-2.893-2.578-6.703-4.147-10.884-4.147s-7.991 1.569-10.885 4.147c-1.638 1.46-4.168 1.46-5.806 0-2.893-2.578-6.703-4.147-10.885-4.147s-7.991 1.569-10.884 4.147c-1.638 1.46-4.168 1.46-5.806 0-2.893-2.578-6.703-4.147-10.885-4.147-4.181 0-7.991 1.569-10.885 4.147-1.638 1.46-4.168 1.46-5.806 0-2.893-2.578-6.703-4.147-10.885-4.147-4.181 0-7.991 1.569-10.884 4.147-1.638 1.46-4.168 1.46-5.806 0-2.894-2.578-6.703-4.147-10.885-4.147-4.181 0-7.991 1.569-10.885 4.147-1.638 1.46-4.168 1.46-5.806 0-2.893-2.578-6.703-4.147-10.885-4.147s-7.993 1.57-10.887 4.149c-.323.288-.683.497-1.057.667 44.635 46.919 107.672 76.169 177.542 76.169 14.961 0 29.607-1.346 43.828-3.914z" fill="#50dd89"/><g><path d="m150.518 485.873c-2.578-2.893-4.147-6.703-4.147-10.884 0-4.182 1.57-7.993 4.149-10.887 1.502-1.685 1.373-4.228-.112-5.928-2.532-2.9-4.061-6.696-4.037-10.854.033-5.841 3.232-10.892 7.92-13.768-2.529-1.602-5.521-2.537-8.737-2.537-4.181 0-7.991 1.569-10.884 4.147-1.638 1.46-4.168 1.46-5.806 0-2.894-2.578-6.703-4.147-10.885-4.147-4.181 0-7.991 1.569-10.885 4.147-1.638 1.46-4.168 1.46-5.806 0-2.893-2.578-6.703-4.147-10.885-4.147s-7.993 1.57-10.887 4.149c-.323.288-.683.497-1.057.667 20.781 21.845 45.554 39.854 73.146 52.87-.016-1.017-.375-2.029-1.087-2.828z" fill="#38c674"/></g><g><path d="m198.383 86.859c-6.414 0-11.613-5.199-11.613-11.613v-26.282c0-6.414 5.199-11.613 11.613-11.613s11.613 5.199 11.613 11.613v26.283c0 6.413-5.199 11.612-11.613 11.612z" fill="#6289cc"/></g><path d="m198.383 64.859c-6.414 0-11.613-5.199-11.613-11.613v22c0 6.414 5.199 11.613 11.613 11.613s11.613-5.199 11.613-11.613v-22c0 6.414-5.199 11.613-11.613 11.613z" fill="#4b6bb2"/></g></svg>